HIERARCHY
ROOT Hips
{
	OFFSET 0.000000 88.474243 0.000000
	CHANNELS 6 Xposition Yposition Zposition Zrotation Yrotation Xrotation 
	JOINT Hips_Spine
	{
		OFFSET 0.000000 0.000000 0.000000
		CHANNELS 3 Zrotation Yrotation Xrotation
		JOINT Spine
		{
			OFFSET 0.005100 8.711998 -0.691000
			CHANNELS 3 Zrotation Yrotation Xrotation
			JOINT Spine1
			{
				OFFSET -0.009200 8.660301 -1.275000
				CHANNELS 3 Zrotation Yrotation Xrotation
				JOINT Spine2
				{
					OFFSET 0.006300 9.852501 -1.857000
					CHANNELS 3 Zrotation Yrotation Xrotation
					JOINT Spine2_Neck
					{
						OFFSET 0.000000 0.000000 0.000000
						CHANNELS 3 Zrotation Yrotation Xrotation
						JOINT Neck
						{
							OFFSET 0.016300 11.420799 -0.263300
							CHANNELS 3 Zrotation Yrotation Xrotation
							End Site #name: Head
							{
								OFFSET -0.019200 9.262405 2.362500
							}
						}
					}
					JOINT Spine2_LeftShoulder
					{
						OFFSET 0.000000 0.000000 0.000000
						CHANNELS 3 Zrotation Yrotation Xrotation
						JOINT LeftShoulder
						{
							OFFSET 5.616900 6.732201 -0.345700
							CHANNELS 3 Zrotation Yrotation Xrotation
							JOINT LeftArm
							{
								OFFSET 10.664888 -0.183372 -2.440700
								CHANNELS 3 Zrotation Yrotation Xrotation
								JOINT LeftForeArm
								{
									OFFSET 27.459126 0.000000 0.000000
									CHANNELS 3 Zrotation Yrotation Xrotation
									End Site #name: LeftHand
									{
										OFFSET 21.306858 0.000000 0.000000
									}
								}
							}
						}
					}
					JOINT Spine2_RightShoulder
					{
						OFFSET 0.000000 0.000000 0.000000
						CHANNELS 3 Zrotation Yrotation Xrotation
						JOINT RightShoulder
						{
							OFFSET -5.580300 6.737503 -0.344400
							CHANNELS 3 Zrotation Yrotation Xrotation
							JOINT RightArm
							{
								OFFSET -10.679335 -0.188484 -2.383900
								CHANNELS 3 Zrotation Yrotation Xrotation
								JOINT RightForeArm
								{
									OFFSET -27.503529 0.000000 0.000000
									CHANNELS 3 Zrotation Yrotation Xrotation
									End Site #name: RightHand
									{
										OFFSET -21.306808 0.000000 0.000000
									}
								}
							}
						}
					}
				}
			}
		}
	}
	JOINT Hips_LeftUpLeg
	{
		OFFSET 0.000000 0.000000 0.000000
		CHANNELS 3 Zrotation Yrotation Xrotation
		JOINT LeftUpLeg
		{
			OFFSET 6.857700 -6.739601 0.312100
			CHANNELS 3 Zrotation Yrotation Xrotation
			JOINT LeftLeg
			{
				OFFSET -0.367590 -34.731552 -4.572400
				CHANNELS 3 Zrotation Yrotation Xrotation
				End Site #name: LeftFoot
				{
					OFFSET 0.367590 -34.656704 -6.067400
				}
			}
		}
	}
	JOINT Hips_RightUpLeg
	{
		OFFSET 0.000000 0.000000 0.000000
		CHANNELS 3 Zrotation Yrotation Xrotation
		JOINT RightUpLeg
		{
			OFFSET -6.876100 -6.733299 0.301000
			CHANNELS 3 Zrotation Yrotation Xrotation
			JOINT RightLeg
			{
				OFFSET 0.347353 -34.795158 -4.515900
				CHANNELS 3 Zrotation Yrotation Xrotation
				End Site #name: RightFoot
				{
					OFFSET -0.347353 -34.589367 -6.070300
				}
			}
		}
	}
}
MOTION
Frames: 15
Frame Time: 0.041667
1.624609 -1.446061 -1.752901 -9.766199 54.279774 -5.847011 0.000000 -0.000000 0.000000 4.802348 -4.314285 3.021379 4.564613 -1.241632 7.582343 0.000000 0.000000 0.000000 4.539378 -1.817756 6.986063 2.366863 -24.637233 -1.889018 2.405747 -0.102427 6.719384 -1.564530 0.091620 -2.466970 -93.313524 -16.804928 -10.339084 0.510768 2.116868 3.031208 4.479903 -2.435024 6.689462 14.997505 19.914777 2.938077 61.334270 4.082813 -1.927746 -178.847899 55.747666 -174.045096 0.000000 0.000000 0.000000 2.030014 18.475023 -12.534707 -2.853175 -26.230473 -1.724713 0.000000 0.000000 0.000000 -1.976337 -27.565823 -6.469106 -8.210221 -7.380208 17.385036 
1.649361 -1.473526 -1.807576 -9.588331 53.722666 -5.689485 0.000000 -0.000000 0.000000 4.765720 -4.358773 3.024244 4.513455 -1.229146 7.534004 0.000000 0.000000 0.000000 4.508339 -1.814883 6.949693 2.205976 -24.311925 -1.907267 2.386159 -0.094985 6.692622 -1.552349 -0.028113 -2.437080 -93.322623 -16.895602 -10.247238 0.494375 2.132066 3.048934 4.440026 -2.424155 6.651356 15.120669 19.956681 2.956204 61.165118 4.258087 -1.882135 -178.758744 56.356071 -173.938282 0.000000 0.000000 0.000000 2.035719 18.464183 -12.609238 -2.876872 -26.071724 -1.580765 0.000000 0.000000 0.000000 -1.904732 -27.314255 -6.482966 -8.247736 -7.374887 17.415042 
1.675545 -1.500735 -1.860150 -9.418065 53.198629 -5.528281 0.000000 -0.000000 0.000000 4.710566 -4.426007 3.045047 4.450359 -1.218678 7.491008 0.000000 0.000000 0.000000 4.470906 -1.812827 6.919475 2.038244 -23.926635 -1.932848 2.360681 -0.088197 6.671288 -1.535168 -0.171315 -2.403125 -93.306701 -16.986172 -10.154016 0.473662 2.137598 3.065954 4.390638 -2.418196 6.616045 15.236417 19.999379 2.969835 60.987088 4.481622 -1.853274 -178.674551 56.887909 -173.837179 0.000000 0.000000 0.000000 2.040636 18.442263 -12.705542 -2.907356 -25.930230 -1.409575 0.000000 0.000000 0.000000 -1.840400 -27.108158 -6.496456 -8.278453 -7.368427 17.441826 
1.703072 -1.527709 -1.911212 -9.258181 52.704745 -5.366720 0.000000 -0.000000 0.000000 4.641013 -4.521146 3.087728 4.375566 -1.211485 7.454969 0.000000 0.000000 0.000000 4.425662 -1.811843 6.895145 1.867792 -23.488669 -1.971094 2.328222 -0.084450 6.659085 -1.515175 -0.355767 -2.356154 -93.262519 -17.072349 -10.061669 0.448410 2.138081 3.081470 4.330950 -2.417951 6.587403 15.352092 20.044447 2.977379 60.802443 4.784682 -1.849702 -178.599821 57.297708 -173.742663 0.000000 0.000000 0.000000 2.039446 18.415011 -12.818341 -2.933887 -25.812100 -1.233779 0.000000 0.000000 0.000000 -1.781911 -26.944915 -6.525380 -8.318638 -7.381697 17.472473 
1.731686 -1.554317 -1.961365 -9.110461 52.258167 -5.202299 0.000000 -0.000000 0.000000 4.549849 -4.630994 3.173133 4.286337 -1.207421 7.424671 0.000000 0.000000 0.000000 4.372133 -1.812871 6.873675 1.686230 -22.985883 -2.026563 2.287518 -0.082081 6.661273 -1.499733 -0.562635 -2.301262 -93.200327 -17.149734 -9.979285 0.417982 2.130202 3.095388 4.258040 -2.423455 6.564980 15.470858 20.087626 2.981247 60.617990 5.161670 -1.891071 -178.546453 57.527026 -173.665937 0.000000 0.000000 0.000000 2.034808 18.381421 -12.929193 -2.950284 -25.706020 -1.086992 0.000000 0.000000 0.000000 -1.725694 -26.827801 -6.554993 -8.344123 -7.404417 17.485357 
1.761974 -1.580247 -2.010903 -8.985558 51.887453 -5.051210 0.000000 -0.000000 0.000000 4.442394 -4.762711 3.279028 4.185796 -1.208484 7.401453 0.000000 0.000000 0.000000 4.310625 -1.814921 6.860568 1.526923 -22.418878 -2.093387 2.239638 -0.083143 6.664224 -1.485584 -0.787112 -2.240356 -93.125235 -17.221927 -9.918767 0.376359 2.114946 3.100524 4.172815 -2.434819 6.546271 15.586121 20.129517 2.969372 60.432451 5.599050 -1.980340 -178.515616 57.560220 -173.607548 0.000000 0.000000 0.000000 2.025856 18.344304 -13.038168 -2.965112 -25.615539 -0.956340 0.000000 0.000000 0.000000 -1.672774 -26.763459 -6.595330 -8.388510 -7.467925 17.511545 
1.794832 -1.605793 -2.059623 -8.892360 51.623518 -4.927205 0.000000 -0.000000 0.000000 4.321619 -4.908397 3.425540 4.072127 -1.210322 7.388919 0.000000 0.000000 0.000000 4.240390 -1.817390 6.856405 1.393097 -21.822884 -2.129081 2.174114 -0.081966 6.686970 -1.470136 -1.036304 -2.176761 -93.026984 -17.264780 -9.867481 0.319706 2.101526 3.090033 4.076687 -2.450176 6.536156 15.729493 20.182680 2.952728 60.248839 6.073404 -2.109359 -178.511495 57.361361 -173.573670 0.000000 0.000000 0.000000 2.011595 18.307618 -13.148556 -2.977394 -25.524168 -0.837886 0.000000 0.000000 0.000000 -1.631219 -26.738341 -6.647128 -8.461068 -7.584244 17.549510 
1.831071 -1.630746 -2.107398 -8.823599 51.451500 -4.831901 0.000000 -0.000000 0.000000 4.180370 -5.080326 3.591625 3.949198 -1.215272 7.385409 0.000000 0.000000 0.000000 4.165245 -1.822651 6.855185 1.290654 -21.189521 -2.175857 2.090269 -0.082552 6.710767 -1.456216 -1.320264 -2.104287 -92.892909 -17.326846 -9.854241 0.254108 2.091017 3.068753 3.971972 -2.470778 6.530179 15.890825 20.237634 2.922593 60.062262 6.588804 -2.305501 -178.539873 56.902602 -173.567858 0.000000 0.000000 0.000000 1.990631 18.270674 -13.259253 -2.992674 -25.432546 -0.727163 0.000000 0.000000 0.000000 -1.604708 -26.724370 -6.701963 -8.542389 -7.747321 17.586241 
1.871754 -1.655088 -2.153771 -8.764942 51.343919 -4.755086 0.000000 -0.000000 0.000000 4.020357 -5.258175 3.792217 3.816674 -1.222909 7.386495 0.000000 0.000000 0.000000 4.086604 -1.827981 6.862357 1.235995 -20.537100 -2.257286 2.000148 -0.090061 6.732630 -1.444548 -1.645101 -2.020445 -92.740145 -17.394040 -9.886933 0.175457 2.110732 3.021196 3.857761 -2.498952 6.522244 16.063645 20.298556 2.886737 59.882722 7.122416 -2.505212 -178.600424 56.160885 -173.592705 0.000000 0.000000 -0.000000 1.959999 18.241228 -13.373161 -3.010244 -25.358393 -0.621033 0.000000 0.000000 0.000000 -1.598896 -26.679801 -6.765889 -8.622572 -7.970252 17.626947 
1.917851 -1.678582 -2.198179 -8.720220 51.322813 -4.708514 0.000000 -0.000000 0.000000 3.842748 -5.444533 4.024707 3.676639 -1.238266 7.384902 0.000000 0.000000 0.000000 4.002119 -1.841120 6.869496 1.229584 -19.888534 -2.376739 1.903678 -0.105907 6.755992 -1.432342 -2.020156 -1.924070 -92.528793 -17.468602 -9.943738 0.095200 2.153455 2.940829 3.736342 -2.537539 6.515575 16.229208 20.344172 2.835108 59.724745 7.636499 -2.709769 -178.689867 55.078593 -173.646031 0.000000 -0.000000 -0.000000 1.918926 18.218314 -13.480424 -3.029586 -25.302847 -0.524962 0.000000 0.000000 -0.000000 -1.618061 -26.583400 -6.842544 -8.683156 -8.268801 17.671495 
1.970534 -1.700742 -2.240080 -8.695215 51.409247 -4.699648 0.000000 -0.000000 0.000000 3.638102 -5.649873 4.280697 3.530509 -1.262360 7.388280 0.000000 0.000000 0.000000 3.912056 -1.859565 6.879390 1.232572 -19.235228 -2.531580 1.803634 -0.133620 6.767844 -1.423476 -2.436740 -1.815804 -92.274273 -17.552933 -10.035302 0.006771 2.210609 2.846734 3.609070 -2.586864 6.510345 16.376064 20.367464 2.766570 59.612330 8.056699 -2.875329 -178.801380 53.725463 -173.725591 0.000000 -0.000000 -0.000000 1.866086 18.199086 -13.577598 -3.051797 -25.280777 -0.453061 0.000000 -0.000000 -0.000000 -1.666285 -26.400708 -6.923266 -8.709549 -8.641514 17.703216 
2.031009 -1.721696 -2.279078 -8.686922 51.637518 -4.720088 0.000000 -0.000000 0.000000 3.378670 -5.898907 4.490036 3.380295 -1.295747 7.394263 0.000000 0.000000 0.000000 3.819737 -1.883969 6.892002 1.242070 -18.584072 -2.700622 1.695858 -0.170374 6.780546 -1.406742 -2.879990 -1.703878 -92.020444 -17.640854 -10.147871 -0.095052 2.287541 2.728462 3.477896 -2.645537 6.505514 16.496398 20.387429 2.687090 59.532017 8.427871 -3.023551 -178.944087 51.990620 -173.845196 0.000000 -0.000000 -0.000000 1.804657 18.175342 -13.657163 -3.075470 -25.278044 -0.408215 0.000000 -0.000000 -0.000000 -1.735438 -26.092662 -7.016176 -8.674055 -9.044825 17.720806 
2.099871 -1.741136 -2.315033 -8.699896 52.011220 -4.775026 0.000000 -0.000000 0.000000 3.080871 -6.156239 4.715474 3.220444 -1.335464 7.411364 0.000000 0.000000 0.000000 3.696640 -1.908789 6.917387 1.259260 -17.963219 -2.890932 1.583991 -0.215731 6.791458 -1.389680 -3.331273 -1.594942 -91.765604 -17.720586 -10.279753 -0.207129 2.423616 2.576015 3.335526 -2.710812 6.508271 16.585653 20.401260 2.597492 59.514666 8.734902 -3.173099 -179.094199 50.065651 -173.972534 0.000000 -0.000000 -0.000000 1.726803 18.141278 -13.720017 -3.094824 -25.297073 -0.409824 0.000000 -0.000000 -0.000000 -1.810928 -25.656709 -7.123525 -8.584772 -9.467473 17.705322 
2.177891 -1.759226 -2.348388 -8.722901 52.475059 -4.848288 0.000000 -0.000000 0.000000 2.755302 -6.408292 4.958433 3.054812 -1.380730 7.431592 0.000000 0.000000 0.000000 3.560238 -1.932799 6.946967 1.256856 -17.349619 -3.091689 1.468579 -0.266275 6.805903 -1.367324 -3.803982 -1.477726 -91.452392 -17.751763 -10.548598 -0.329143 2.581419 2.392778 3.179211 -2.777493 6.519985 16.631667 20.442815 2.505676 59.507006 9.085089 -3.400366 -179.231842 48.130817 -174.086905 0.000000 -0.000000 -0.000000 1.637640 18.096301 -13.759806 -3.114228 -25.343198 -0.461856 0.000000 -0.000000 -0.000000 -1.902692 -25.124157 -7.246147 -8.442181 -9.893418 17.655013 
2.265561 -1.776670 -2.379862 -8.747776 53.027599 -4.928760 0.000000 -0.000000 0.000000 2.425684 -6.637817 5.211644 2.888382 -1.429101 7.456463 0.000000 0.000000 0.000000 3.418298 -1.953410 6.976937 1.239309 -16.733775 -3.298137 1.349601 -0.319145 6.833193 -1.346642 -4.246512 -1.371483 -91.145523 -17.727378 -10.879900 -0.444697 2.789586 2.202511 3.018844 -2.844595 6.548537 16.657267 20.532548 2.391530 59.486377 9.452698 -3.834186 -179.360734 46.102585 -174.200964 0.000000 -0.000000 -0.000000 1.539216 18.034253 -13.791572 -3.136324 -25.389464 -0.536296 0.000000 -0.000000 -0.000000 -2.013033 -24.540818 -7.371780 -8.270776 -10.337808 17.572036 
